####
#
# OBJ File Generated by Meshlab
#
####
# Object Leg__Left.obj
#
# Vertices: 16
# Faces: 28
#
####
vn 1.570796 -1.570797 -4.712389
v 17.561619 -14.482809 0.000000
vn 1.570796 -1.570796 -1.570796
v 18.361618 -14.482809 0.000000
vn 4.712389 -1.570796 1.570797
v 17.561619 -14.482809 2.000000
vn 1.570797 -1.570796 1.570796
v 18.361618 -14.482809 2.000000
vn 1.570797 1.570796 -1.570797
v 18.361618 1.367191 0.000000
vn 1.570796 1.570796 -4.712389
v 17.561619 1.367191 0.000000
vn 1.570796 1.570796 1.570797
v 18.361618 1.367191 2.000000
vn 4.712389 1.570796 1.570796
v 17.561619 1.367191 2.000000
vn 2.244757 1.418865 -2.014245
v 17.561619 2.367191 0.000000
vn 2.244757 1.418865 2.014245
v 17.561619 2.367191 4.000000
vn 0.589528 -1.226586 0.896056
v 17.561619 -15.482809 4.000000
vn 0.589528 -1.226586 -0.896055
v 17.561619 -15.482809 0.000001
vn -1.387820 0.290687 -0.936539
v -18.361618 13.255777 -0.000000
vn -1.387820 0.290687 0.936540
v -18.361618 13.255777 3.999999
vn 0.267409 2.936138 -2.436344
v -10.050215 15.482809 -0.000000
vn 0.267409 2.936138 2.436345
v -10.050215 15.482809 3.999999
# 16 vertices, 0 vertices normals

f 1//1 2//2 3//3
f 3//3 2//2 4//4
f 5//5 6//6 7//7
f 7//7 6//6 8//8
f 2//2 5//5 4//4
f 4//4 5//5 7//7
f 4//4 7//7 3//3
f 3//3 7//7 8//8
f 6//6 9//9 8//8
f 8//8 9//9 10//10
f 8//8 10//10 3//3
f 3//3 10//10 11//11
f 3//3 11//11 12//12
f 12//12 1//1 3//3
f 13//13 12//12 14//14
f 14//14 12//12 11//11
f 15//15 13//13 16//16
f 16//16 13//13 14//14
f 9//9 15//15 10//10
f 10//10 15//15 16//16
f 10//10 16//16 11//11
f 11//11 16//16 14//14
f 9//9 6//6 15//15
f 15//15 6//6 1//1
f 15//15 1//1 13//13
f 13//13 1//1 12//12
f 6//6 5//5 1//1
f 1//1 5//5 2//2
# 28 faces, 0 coords texture

# End of File
